<svg xmlns="http://www.w3.org/2000/svg" viewBox="0 0 256 256" role="img" aria-label="Ilustrasi perempuan">
  <defs>
    <linearGradient id="bg" x1="0%" y1="0%" x2="100%" y2="100%">
      <stop offset="0%" stop-color="#fdf2f8"/>
      <stop offset="100%" stop-color="#fee2e2"/>
    </linearGradient>
    <linearGradient id="dress" x1="0%" y1="0%" x2="0%" y2="100%">
      <stop offset="0%" stop-color="#fb7185"/>
      <stop offset="100%" stop-color="#ec4899"/>
    </linearGradient>
  </defs>
  <rect width="256" height="256" rx="32" fill="url(#bg)"/>
  <g transform="translate(76 40)">
    <circle cx="52" cy="48" r="30" fill="#1f2937"/>
    <rect x="22" y="78" width="60" height="70" rx="24" fill="url(#dress)"/>
    <rect x="28" y="76" width="48" height="18" rx="9" fill="#f9a8d4" opacity="0.9"/>
    <rect x="22" y="140" width="20" height="42" rx="10" fill="#1f2937"/>
    <rect x="62" y="140" width="20" height="42" rx="10" fill="#1f2937"/>
    <rect x="2" y="90" width="18" height="12" rx="6" fill="#f472b6"/>
    <rect x="84" y="90" width="18" height="12" rx="6" fill="#f472b6"/>
    <circle cx="44" cy="44" r="4" fill="#e5e7eb"/>
    <circle cx="60" cy="44" r="4" fill="#e5e7eb"/>
    <path d="M44 58c4 6 12 6 16 0" stroke="#e5e7eb" stroke-width="4" stroke-linecap="round" fill="none"/>
  </g>
</svg>
